<svg xmlns="http://www.w3.org/2000/svg" viewBox="-0.04 101.31 799.85 198.87">
  <path style="fill: rgb(19, 22, 31); stroke: rgb(19, 22, 31);" d="M 0.456 138.752 L 19.339 135.468 L 40.686 145.32 L 61.211 123.974 L 76.811 117.406 C 76.811 117.406 110.472 124.795 106.367 121.511 C 102.262 118.227 120.325 148.604 120.325 148.604 L 162.197 143.678 L 183.543 153.53 L 235.267 117.406 L 254.972 126.437 L 270.571 128.079 L 291.917 116.585 L 345.284 128.079 L 358.42 126.437 L 390.44 137.11 L 405.218 123.974 L 432.312 110.837 L 456.121 114.121 L 470.078 137.11 L 491.425 138.752 L 502.098 150.246 L 549.717 127.258 L 564.495 119.869 L 572.706 131.363 L 595.694 139.573 L 618.683 126.437 L 640.85 141.215 L 658.913 128.079 L 690.111 120.69 L 715.563 124.795 L 728.699 106.732 L 750.866 101.806 L 768.108 119.048 L 780.423 134.647 L 799.307 139.573 L 799.307 299.672 L 1.277 299.672 L 0.456 138.752 Z"/>
</svg>